# xmcd CD database file
#
# Track frame offsets:
#	150
#	16503
#	30341
#	43317
#	58782
#	74733
#	89037
#	104949
#	123194
#	138733
#	153640
#	166944
#	182817
#	194444
#
# Disc length: 2764 seconds
#
# Revision: 0
# Processed by: cddbd v1.5.1PL0 Copyright (c) Steve Scherf et al.
# Submitted via: CDex 1.51
#
DISCID=d00aca0e
DTITLE=Nockalm Quintett - Sternstunden
DYEAR=2005
DGENRE=Volkstümlich
TTITLE0=Und über Rhodos küss ich Dich
TTITLE1=Casablanca für immer
TTITLE2=Nur a Tanz und dann a Busserl
TTITLE3=Aus Tränen wird ein Schmetterling
TTITLE4=Der Himmel spielte Hollywood
TTITLE5=Schenk mir Deine Träume
TTITLE6=Weine nicht um ihn
TTITLE7=Drei Finger auf´s Herz
TTITLE8=Eine neue Liebe ist wie ein neues Leben
TTITLE9=Sag nochmal ich liebe Dich
TTITLE10=Lass mich Dein Kolumbus sein
TTITLE11=Schwarzer Sand von Santa Cruz
TTITLE12=Schuld sind Deine himmelblauen Augen
TTITLE13=Du bist das Mädchen für mich
EXTD=YEAR: 2005
EXTT0=
EXTT1=
EXTT2=
EXTT3=
EXTT4=
EXTT5=
EXTT6=
EXTT7=
EXTT8=
EXTT9=
EXTT10=
EXTT11=
EXTT12=
EXTT13=
PLAYORDER=
